<svg width="24" height="24" viewBox="0 0 24 24" fill="none" xmlns="http://www.w3.org/2000/svg">
<path d="M16.5215 10.3125C16.5215 9.79472 16.1018 9.375 15.584 9.375H5.92774C5.40995 9.375 4.99023 9.79472 4.99023 10.3125C4.99023 10.8303 5.40995 11.25 5.92774 11.25H15.584C16.1018 11.25 16.5215 10.8303 16.5215 10.3125Z" fill="#6E798C"/>
<path d="M5.92773 13.125C5.40995 13.125 4.99023 13.5447 4.99023 14.0625C4.99023 14.5803 5.40995 15 5.92773 15H11.7923C12.3101 15 12.7298 14.5803 12.7298 14.0625C12.7298 13.5447 12.3101 13.125 11.7923 13.125H5.92773Z" fill="#6E798C"/>
<path d="M8.13103 22.125H4.99561C3.96173 22.125 3.12061 21.2839 3.12061 20.25V3.75C3.12061 2.71613 3.96173 1.875 4.99561 1.875H16.5217C17.5555 1.875 18.3967 2.71613 18.3967 3.75V9.51562C18.3967 10.0334 18.8164 10.4531 19.3342 10.4531C19.8519 10.4531 20.2717 10.0334 20.2717 9.51562V3.75C20.2717 1.68225 18.5894 0 16.5217 0H4.99561C2.92786 0 1.24561 1.68225 1.24561 3.75V20.25C1.24561 22.3177 2.92786 24 4.99561 24H8.13103C8.64881 24 9.06853 23.5803 9.06853 23.0625C9.06853 22.5447 8.64881 22.125 8.13103 22.125Z" fill="#6E798C"/>
<path d="M21.9321 13.5738C20.8355 12.4772 19.0513 12.4771 17.9554 13.573L12.8084 18.7086C12.6991 18.8177 12.6184 18.9521 12.5735 19.0998L11.4526 22.79C11.3532 23.1172 11.4398 23.4725 11.6786 23.7172C11.8575 23.9006 12.1005 24.0001 12.3497 24.0001C12.4331 24.0001 12.5173 23.9889 12.5999 23.966L16.3839 22.9178C16.5396 22.8747 16.6816 22.7921 16.7959 22.6779L21.9322 17.5513C23.0288 16.4547 23.0288 14.6705 21.9321 13.5738ZM15.6458 21.1767L13.7421 21.704L14.2992 19.8699L17.7722 16.4046L19.0982 17.7307L15.6458 21.1767ZM20.607 16.2249L20.4254 16.4062L19.0995 15.0803L19.2805 14.8997C19.6461 14.5342 20.2408 14.5342 20.6064 14.8997C20.9719 15.2652 20.9719 15.86 20.607 16.2249Z" fill="#6E798C"/>
<path d="M15.584 5.625H5.92774C5.40995 5.625 4.99023 6.04472 4.99023 6.5625C4.99023 7.08028 5.40995 7.5 5.92774 7.5H15.584C16.1018 7.5 16.5215 7.08028 16.5215 6.5625C16.5215 6.04472 16.1018 5.625 15.584 5.625Z" fill="#6E798C"/>
</svg>
