<svg width="24" height="24" viewBox="0 0 24 24" fill="none" xmlns="http://www.w3.org/2000/svg">
<path d="M11.9603 13.3991C15.5071 13.3991 18.3839 10.5223 18.3839 6.97549C18.3839 3.42872 15.507 0.571533 11.9603 0.571533C8.41349 0.571533 5.53662 3.4484 5.53662 6.97549C5.53662 10.5026 8.41344 13.3991 11.9603 13.3991ZM11.9603 2.24642C14.5612 2.24642 16.6893 4.37448 16.6893 6.97549C16.6893 9.57651 14.5612 11.7045 11.9603 11.7045C9.35929 11.7045 7.23118 9.57646 7.23118 6.97545C7.23118 4.37444 9.35925 2.24642 11.9603 2.24642Z" fill="#6E798C"/>
<path d="M0.847282 23.4287H23.1527C23.6256 23.4287 24 23.0543 24 22.5814C24 18.1479 20.3941 14.5222 15.9409 14.5222H8.05912C3.62562 14.5222 0 18.1281 0 22.5814C0 23.0543 0.374378 23.4287 0.847282 23.4287ZM8.05912 16.2168H15.9409C19.1724 16.2168 21.8325 18.6208 22.2463 21.734H1.75369C2.16747 18.6405 4.8276 16.2168 8.05912 16.2168Z" fill="#6E798C"/>
</svg>
