<svg width="80" height="80" viewBox="0 0 80 80" fill="none" xmlns="http://www.w3.org/2000/svg">
<path d="M18.125 46.25C18.125 41.5112 21.98 37.6562 26.7188 37.6562H53.2812C55.4352 37.6562 57.1875 35.9039 57.1875 33.75V11.7188C57.1875 5.25696 51.9305 0 45.4688 0H34.5312C28.0695 0 22.8125 5.25696 22.8125 11.7188V18.125H40C41.2946 18.125 42.3438 19.1742 42.3438 20.4688C42.3438 21.7633 41.2946 22.8125 40 22.8125H11.7188C5.25696 22.8125 0 28.0695 0 34.5312V45.4688C0 51.9305 5.25696 57.1875 11.7188 57.1875H18.125V46.25ZM34.5312 11.875C33.2367 11.875 32.1875 10.8258 32.1875 9.53125C32.1875 8.23669 33.2367 7.1875 34.5312 7.1875C35.8258 7.1875 36.875 8.23669 36.875 9.53125C36.875 10.8258 35.8258 11.875 34.5312 11.875Z" fill="white"/>
<path d="M68.2812 22.8125H61.875V33.75C61.875 38.4888 58.02 42.3438 53.2812 42.3438H26.7188C24.5648 42.3438 22.8125 44.0961 22.8125 46.25V68.2812C22.8125 74.743 28.0695 80 34.5312 80H45.4688C51.9305 80 57.1875 74.743 57.1875 68.2812V61.875H40C38.7054 61.875 37.6562 60.8258 37.6562 59.5312C37.6562 58.2367 38.7054 57.1875 40 57.1875H68.2812C74.743 57.1875 80 51.9305 80 45.4688V34.5312C80 28.0695 74.743 22.8125 68.2812 22.8125ZM45.4688 68.125C46.7633 68.125 47.8125 69.1742 47.8125 70.4688C47.8125 71.7633 46.7633 72.8125 45.4688 72.8125C44.1742 72.8125 43.125 71.7633 43.125 70.4688C43.125 69.1742 44.1742 68.125 45.4688 68.125Z" fill="white"/>
</svg>
