<svg width="80" height="80" viewBox="0 0 80 80" fill="none" xmlns="http://www.w3.org/2000/svg">
<g clip-path="url(#clip0_2377_101)">
<path d="M79.9587 26.7367C79.9673 26.7009 79.9801 26.6666 79.9858 26.6309C80.0087 26.4709 80.0044 26.3095 79.973 26.148C79.9658 26.1094 79.9487 26.0751 79.9373 26.038C79.9144 25.9594 79.8987 25.8808 79.863 25.8065C79.8387 25.7565 79.8015 25.7179 79.773 25.6722C79.7572 25.6479 79.7558 25.6208 79.7387 25.5965L69.0229 10.5943C68.8714 10.3829 68.6671 10.2472 68.4456 10.1471C68.3042 9.81995 68.0513 9.54562 67.7127 9.39989L54.4965 3.68479C54.3165 3.60763 54.125 3.56763 53.9293 3.56763H26.0682C25.8724 3.56763 25.681 3.60763 25.5009 3.68479L12.2848 9.39989C11.9476 9.54562 11.6947 9.81995 11.5532 10.1457C11.3332 10.2457 11.1274 10.3829 10.976 10.5943L0.260181 25.5965C0.243035 25.6194 0.241607 25.6479 0.22589 25.6722C0.197315 25.7179 0.160166 25.7565 0.137306 25.8065C0.101587 25.8808 0.08587 25.9608 0.0630096 26.038C0.0530082 26.0751 0.0358629 26.1109 0.028719 26.148C-0.00414285 26.308 -0.0070004 26.4709 0.01586 26.6309C0.0215751 26.6681 0.0344341 26.7009 0.0430067 26.7367C0.0715823 26.8624 0.115874 26.9824 0.177312 27.0981C0.200172 27.141 0.223032 27.181 0.250179 27.2224C0.270182 27.2524 0.281612 27.2867 0.304473 27.3167L38.8814 75.8951C38.8928 75.9094 38.9114 75.9151 38.9228 75.928C39.0457 76.0708 39.1886 76.188 39.3543 76.2723C39.3801 76.2852 39.4072 76.2937 39.4343 76.3052C39.6115 76.3823 39.8015 76.4352 40.0016 76.4352C40.2016 76.4352 40.3916 76.3823 40.5688 76.3052C40.5959 76.2937 40.6231 76.2852 40.6488 76.2723C40.8131 76.188 40.9574 76.0708 41.0803 75.928C41.0917 75.9151 41.1103 75.9094 41.1217 75.8951L79.6987 27.3167C79.7215 27.2882 79.733 27.2524 79.7544 27.2224C79.7815 27.1824 79.8044 27.141 79.8273 27.0981C79.8858 26.9824 79.9301 26.8624 79.9587 26.7367ZM26.3653 6.42375H53.6349L63.8778 10.853L53.5692 16.4252H26.4311L16.1224 10.853L26.3653 6.42375ZM22.4848 42.1431H57.5155L40.0001 72.1703L22.4848 42.1431ZM22.5419 39.2856L27.5426 19.2827H52.5005L58.307 39.2856H22.5419ZM4.00214 25.275L13.1363 12.4875L24.7294 18.7541L19.8716 38.1869L4.0793 25.3193C4.05644 25.2993 4.02643 25.2922 4.00214 25.275ZM18.5828 40.823C18.5985 41.0344 18.6528 41.2444 18.7643 41.4345L28.7185 58.5012L7.5255 31.8131L18.5828 40.823ZM51.2817 58.5012L61.2375 41.4345C61.3489 41.2444 61.4018 41.0344 61.4189 40.823L72.4776 31.8131L51.2817 58.5012ZM60.8045 37.6354L55.3152 18.7298L66.864 12.4875L75.9981 25.275C75.9738 25.2922 75.9438 25.2993 75.9196 25.3193L60.8045 37.6354Z" fill="white"/>
</g>
<defs>
<clipPath id="clip0_2377_101">
<rect width="80" height="80" fill="white"/>
</clipPath>
</defs>
</svg>
